# xmcd CD database file
#
# Track frame offsets:
#	150
#	17098
#	30222
#	41170
#	59578
#	78221
#	89493
#	102018
#	117071
#	132311
#	147909
#	166471
#	175306
#	187418
#	202717
#	216817
#	230465
#	245389
#	262043
#	282967
#	300779
#	317953
#	333027
#	346557
#
# Disc length: 4785 seconds
#
# Revision: 6
# Processed by: cddbd v1.5.1PL0 Copyright (c) Steve Scherf et al.
# Submitted via: NeoAudio 9.9.9
#
DISCID=4912af18
DTITLE=Various Artist - Instrumental Legends [CD-2)
DYEAR=2003
DGENRE=Instrumental
TTITLE0=Francis Goya - I Just Call To Say I Love You
TTITLE1=E.Simoni - Pop Corn
TTITLE2=The Shadows - Sealed With A Kiss
TTITLE3=Francis Garsia - Still Go To The Blues
TTITLE4=Anthony Ventura - Speak Softly Love
TTITLE5=Francis Goya - Gypsy
TTITLE6=Saint - Preux - Aria de Syrna
TTITLE7=D.Modena and J.P.Audin - Ocarina - II
TTITLE8=N.Deb Angelis - Jalouse Andalouse
TTITLE9=Francis Garsia - Corfu My Love
TTITLE10=C.Ventura - Feelings
TTITLE11=The Shadows - Man Of Mystery
TTITLE12=M.Legrand - Les Parapluies De Cherbourg
TTITLE13=James Last - Symfh #40
TTITLE14=Richard Clayderman - Moonlight Sonate
TTITLE15=Paul Mauriat - Sur Un Air On Vivaldy
TTITLE16=Pete Tex Orchestra - Unchaihed Melody
TTITLE17=Caravelli Orchestra - Comme To !
TTITLE18=Francis Goya and S.D.Luca - Dance Me To The End Love
TTITLE19=V.S.O. - Rock Me Amadens
TTITLE20=C.D.O. - Love On The Rocks
TTITLE21=D.Luca - Rondo Russo
TTITLE22=Francis Garsia - Ulyses Shares
TTITLE23=James Last and Richard Clayderman - Granol Ma Mere Chantait
EXTD=YEAR: 2003
EXTT0=
EXTT1=
EXTT2=
EXTT3=
EXTT4=
EXTT5=
EXTT6=
EXTT7=
EXTT8=
EXTT9=
EXTT10=
EXTT11=
EXTT12=
EXTT13=
EXTT14=
EXTT15=
EXTT16=
EXTT17=
EXTT18=
EXTT19=
EXTT20=
EXTT21=
EXTT22=
EXTT23=
PLAYORDER=
